{"glyphs":{"0":{"ha":1265,"x_min":0,"x_max":1199,"o":"m 861 972 q 1169 743 1057 972 q 1199 596 1199 667 l 1199 376 q 1013 43 1199 165 q 875 0 940 0 l 322 0 q 50 183 169 0 q 0 374 0 279 l 0 596 q 186 929 0 806 q 338 972 260 972 l 861 972 m 201 331 q 319 201 201 247 l 858 201 q 997 322 960 201 l 997 632 q 875 768 997 738 q 847 772 871 772 l 351 772 q 201 642 231 772 l 201 331 m 726 388 l 472 388 l 472 585 l 726 585 l 726 388 z "},"1":{"ha":739,"x_min":6,"x_max":675,"o":"m 338 972 q 653 732 540 972 q 675 614 675 657 l 675 7 q 667 0 675 0 l 485 0 q 478 7 478 0 l 478 617 q 363 768 478 731 q 331 772 344 772 l 224 772 l 6 972 l 338 972 z "},"2":{"ha":1263,"x_min":0,"x_max":1194,"o":"m 253 772 l 13 972 l 908 972 q 1185 764 1100 972 q 1194 678 1194 721 l 1194 675 q 976 392 1194 475 q 904 383 926 383 l 276 383 q 175 272 175 383 l 175 201 l 921 201 l 1186 0 l 7 0 q 0 7 0 0 l 0 301 q 222 581 0 500 q 313 589 276 589 l 922 589 q 1006 636 978 589 q 1015 671 1015 654 l 1015 686 q 908 772 1015 761 l 253 772 z "},"3":{"ha":1263,"x_min":0,"x_max":1194,"o":"m 908 972 q 1185 764 1100 972 q 1194 678 1194 721 l 1194 675 q 1124 485 1194 569 q 1194 297 1194 406 l 1194 294 q 997 14 1194 99 q 922 0 957 0 l 0 0 l 240 201 l 915 201 q 1015 288 1015 214 l 1015 301 q 919 383 1015 371 l 240 383 l 0 589 l 922 589 q 1006 636 978 589 q 1015 671 1015 654 l 1015 686 q 908 772 1015 761 l 240 772 l 0 972 l 908 972 z "},"4":{"ha":1263,"x_min":0,"x_max":1194,"o":"m 1194 7 q 1188 0 1194 0 l 1022 0 q 1015 7 1015 0 l 1015 301 q 919 383 1015 371 l 290 383 q 7 607 86 383 q 0 661 0 635 l 0 965 l 175 817 l 175 707 q 231 596 175 624 q 261 589 256 589 l 883 589 q 1015 567 949 589 l 1015 822 l 1192 971 q 1194 965 1194 968 l 1194 7 z "},"5":{"ha":1263,"x_min":0,"x_max":1194,"o":"m 8 0 l 274 201 l 915 201 q 1015 288 1015 214 l 1015 301 q 919 383 1015 371 l 290 383 q 7 607 86 383 q 0 661 0 635 l 0 965 q 7 972 1 972 l 1183 972 l 942 772 l 183 772 q 175 764 175 771 l 175 707 q 231 596 175 624 q 261 589 256 589 l 883 589 q 1188 358 1118 589 q 1194 297 1194 335 l 1194 294 q 997 14 1194 99 q 922 0 957 0 l 8 0 z "},"6":{"ha":1263,"x_min":0,"x_max":1194,"o":"m 281 201 l 915 201 q 1015 288 1015 214 l 1015 301 q 919 383 1015 371 l 276 383 q 179 297 179 375 q 175 294 175 297 q 281 201 175 214 m 297 772 q 183 711 207 772 q 175 682 183 706 q 261 589 193 589 l 883 589 q 1188 358 1118 589 q 1194 297 1194 335 l 1194 294 q 997 14 1194 99 q 922 0 957 0 l 281 0 q 14 197 101 0 q 0 283 0 238 l 0 301 q 72 489 0 403 q 0 661 0 567 l 0 689 q 215 965 0 879 q 276 972 256 972 l 1183 972 l 942 772 l 297 772 z "},"7":{"ha":1265,"x_min":13,"x_max":1199,"o":"m 858 972 q 1156 772 1043 972 q 1199 581 1199 688 l 1199 7 q 1192 0 1199 0 l 1006 0 q 997 7 997 0 l 997 628 q 883 768 997 729 q 850 772 865 772 l 253 772 l 13 972 l 858 972 z "},"8":{"ha":1263,"x_min":0,"x_max":1194,"o":"m 908 972 q 1185 764 1100 972 q 1194 678 1194 721 l 1194 675 q 1124 485 1194 569 q 1194 297 1194 406 l 1194 294 q 997 14 1194 99 q 922 0 957 0 l 281 0 q 14 197 101 0 q 0 283 0 238 l 0 301 q 72 489 0 403 q 0 661 0 567 l 0 689 q 215 965 0 879 q 276 972 256 972 l 908 972 m 922 589 q 1015 671 1015 601 l 1015 686 q 908 772 1015 761 l 297 772 q 183 711 207 772 q 175 682 183 706 q 261 589 193 589 l 922 589 m 175 294 q 281 201 175 214 l 915 201 q 1015 288 1015 214 l 1015 301 q 919 383 1015 371 l 276 383 q 179 297 179 375 q 175 294 175 297 z "},"9":{"ha":1263,"x_min":0,"x_max":1194,"o":"m 922 589 q 1006 636 978 589 q 1015 671 1015 654 l 1015 686 q 908 772 1015 761 l 297 772 q 183 711 207 772 q 175 682 183 706 q 261 589 193 589 l 922 589 m 915 201 q 1015 288 1015 214 l 1015 301 q 919 383 1015 371 l 290 383 q 7 607 86 383 q 0 661 0 635 l 0 689 q 215 965 0 879 q 276 972 256 972 l 908 972 q 1185 764 1100 972 q 1194 678 1194 721 l 1194 675 q 1124 485 1194 569 q 1194 297 1194 406 l 1194 294 q 997 14 1194 99 q 922 0 957 0 l 8 0 l 274 201 l 915 201 z "}," ":{"ha":344,"x_min":0,"x_max":0,"o":""}," ":{"ha":344,"x_min":0,"x_max":0,"o":""},"!":{"ha":264,"x_min":0,"x_max":0,"o":""},"\"":{"ha":456,"x_min":0,"x_max":0,"o":""},"#":{"ha":1185,"x_min":0,"x_max":0,"o":""},"$":{"ha":1263,"x_min":0,"x_max":0,"o":""},"%":{"ha":1147,"x_min":0,"x_max":0,"o":""},"&":{"ha":1140,"x_min":0,"x_max":0,"o":""},"'":{"ha":233,"x_min":0,"x_max":0,"o":""},"(":{"ha":749,"x_min":0,"x_max":0,"o":""},")":{"ha":749,"x_min":0,"x_max":0,"o":""},"*":{"ha":350,"x_min":0,"x_max":0,"o":""},"+":{"ha":1039,"x_min":0,"x_max":0,"o":""},",":{"ha":264,"x_min":0,"x_max":0,"o":""},"-":{"ha":743,"x_min":0,"x_max":0,"o":""},"­":{"ha":743,"x_min":0,"x_max":0,"o":""},".":{"ha":264,"x_min":0,"x_max":0,"o":""},"/":{"ha":815,"x_min":0,"x_max":0,"o":""},":":{"ha":264,"x_min":0,"x_max":0,"o":""},";":{"ha":264,"x_min":0,"x_max":0,"o":""},";":{"ha":264,"x_min":0,"x_max":0,"o":""},"<":{"ha":744,"x_min":0,"x_max":0,"o":""},"=":{"ha":1040,"x_min":0,"x_max":0,"o":""},">":{"ha":744,"x_min":0,"x_max":0,"o":""},"?":{"ha":1260,"x_min":0,"x_max":0,"o":""},"@":{"ha":1265,"x_min":0,"x_max":0,"o":""},"A":{"ha":1043,"x_min":0,"x_max":0,"o":""},"B":{"ha":826,"x_min":0,"x_max":0,"o":""},"C":{"ha":949,"x_min":0,"x_max":0,"o":""},"D":{"ha":1029,"x_min":0,"x_max":0,"o":""},"E":{"ha":781,"x_min":0,"x_max":0,"o":""},"F":{"ha":731,"x_min":0,"x_max":0,"o":""},"G":{"ha":1003,"x_min":0,"x_max":0,"o":""},"H":{"ha":1069,"x_min":0,"x_max":0,"o":""},"I":{"ha":444,"x_min":0,"x_max":0,"o":""},"J":{"ha":444,"x_min":0,"x_max":0,"o":""},"K":{"ha":936,"x_min":0,"x_max":0,"o":""},"L":{"ha":764,"x_min":0,"x_max":0,"o":""},"M":{"ha":1218,"x_min":0,"x_max":0,"o":""},"N":{"ha":1053,"x_min":0,"x_max":0,"o":""},"O":{"ha":1094,"x_min":0,"x_max":0,"o":""},"P":{"ha":758,"x_min":0,"x_max":0,"o":""},"Q":{"ha":1094,"x_min":0,"x_max":0,"o":""},"R":{"ha":869,"x_min":0,"x_max":0,"o":""},"S":{"ha":735,"x_min":0,"x_max":0,"o":""},"T":{"ha":915,"x_min":0,"x_max":0,"o":""},"U":{"ha":1017,"x_min":0,"x_max":0,"o":""},"V":{"ha":986,"x_min":0,"x_max":0,"o":""},"W":{"ha":1376,"x_min":0,"x_max":0,"o":""},"X":{"ha":915,"x_min":0,"x_max":0,"o":""},"Y":{"ha":836,"x_min":0,"x_max":0,"o":""},"Z":{"ha":761,"x_min":0,"x_max":0,"o":""},"[":{"ha":514,"x_min":0,"x_max":0,"o":""},"\\":{"ha":385,"x_min":0,"x_max":0,"o":""},"]":{"ha":514,"x_min":0,"x_max":0,"o":""},"^":{"ha":688,"x_min":0,"x_max":0,"o":""},"_":{"ha":1040,"x_min":0,"x_max":0,"o":""},"`":{"ha":694,"x_min":0,"x_max":0,"o":""},"a":{"ha":1265,"x_min":0,"x_max":1199,"o":"m 997 632 q 875 768 997 735 q 847 772 871 772 l 351 772 q 201 642 231 772 l 201 331 q 319 201 201 247 l 858 201 q 997 322 960 201 l 997 632 m 1199 972 l 1199 7 q 1192 0 1199 0 l 1006 0 q 997 7 997 0 l 997 32 l 994 32 q 875 0 926 0 l 322 0 q 50 183 169 0 q 0 374 0 279 l 0 596 q 186 929 0 806 q 338 972 260 972 l 861 972 q 997 940 938 972 l 997 972 l 1199 972 z "},"b":{"ha":1264,"x_min":0,"x_max":1194,"o":"m 390 772 q 311 765 336 772 q 200 629 200 728 l 200 340 q 204 311 200 326 q 354 200 244 200 l 840 200 q 994 340 971 200 l 994 640 q 972 700 994 663 q 804 772 935 772 l 390 772 m 822 972 q 1015 922 944 972 q 1194 597 1194 797 l 1194 376 q 1165 229 1194 307 q 854 0 1056 0 l 340 0 q 225 22 300 0 q 0 376 0 146 l 0 1158 l 200 1028 l 200 936 q 372 972 275 972 l 822 972 z "},"c":{"ha":1263,"x_min":0,"x_max":1196,"o":"m 351 772 q 201 642 231 772 l 201 331 q 319 201 201 247 l 858 201 q 997 322 958 201 q 1006 331 1000 331 l 1188 331 q 1194 322 1194 329 q 1108 129 1176 207 q 875 0 1000 0 l 322 0 q 50 183 169 0 q 0 374 0 279 l 0 596 q 186 929 0 806 q 338 972 260 972 l 876 972 q 1110 843 1001 972 q 1196 650 1178 765 q 1188 642 1196 644 l 1006 642 q 999 650 1001 642 q 858 772 960 772 l 351 772 z "},"d":{"ha":1261,"x_min":0,"x_max":1194,"o":"m 200 340 q 354 200 224 200 l 840 200 q 990 311 950 200 q 994 340 994 326 l 994 629 q 883 765 994 728 q 804 772 860 772 l 390 772 q 222 700 260 772 q 200 640 200 663 l 200 340 m 1194 376 q 969 22 1194 146 q 854 0 894 0 l 340 0 q 29 229 140 0 q 0 376 0 307 l 0 597 q 179 922 0 797 q 372 972 250 972 l 822 972 q 994 936 919 972 l 994 1028 l 1193 1158 l 1194 1157 l 1194 376 z "},"e":{"ha":1263,"x_min":0,"x_max":1194,"o":"m 351 772 q 201 642 231 772 l 201 331 q 319 201 201 247 l 858 201 q 997 322 958 201 q 1006 331 1000 331 l 1188 331 q 1194 322 1194 329 q 1108 129 1176 207 q 875 0 1000 0 l 322 0 q 50 183 169 0 q 0 374 0 279 l 0 596 q 186 929 0 806 q 338 972 260 972 l 861 972 q 1174 736 1061 972 q 1194 632 1194 664 l 1194 449 q 1188 442 1194 442 l 567 442 l 321 642 l 997 642 q 847 772 965 772 l 351 772 z "},"f":{"ha":1265,"x_min":0,"x_max":1199,"o":"m 0 597 q 225 951 0 829 q 340 972 296 972 l 1199 972 l 981 772 l 354 772 q 204 661 244 772 q 200 633 200 647 l 200 554 l 1024 554 l 778 353 l 200 353 l 200 -150 l 0 -282 l 0 597 z "},"g":{"ha":1267,"x_min":0,"x_max":1199,"o":"m 997 632 q 875 768 997 738 q 847 772 871 772 l 351 772 q 201 642 231 772 l 201 331 q 319 201 201 247 l 858 201 q 932 222 901 201 q 997 322 976 251 l 997 632 m 858 -83 q 996 33 958 -83 q 875 0 933 0 l 322 0 q 50 183 169 0 q 0 374 0 279 l 0 596 q 186 929 0 806 q 338 972 260 972 l 861 972 q 997 940 938 972 l 997 972 l 1199 972 l 1199 93 q 1013 -240 1199 -118 q 875 -283 940 -283 l 304 -283 l 544 -83 l 858 -83 z "},"h":{"ha":1267,"x_min":0,"x_max":1199,"o":"m 201 938 q 338 974 269 974 l 863 974 q 1171 743 1058 974 q 1199 596 1199 669 l 1199 7 q 1192 0 1199 0 l 1006 0 q 999 7 999 0 l 999 632 q 883 768 999 731 q 847 772 865 772 l 351 772 q 201 643 231 772 l 201 7 q 194 0 201 0 l 7 0 q 0 7 0 0 l 0 1158 l 200 1028 l 201 938 z "},"i":{"ha":264,"x_min":0,"x_max":197,"o":"m 189 1233 q 197 1226 197 1232 l 197 1040 q 189 1033 197 1033 l 7 1033 q 0 1040 0 1033 l 0 1226 q 7 1233 1 1233 l 189 1233 m 189 972 q 197 965 197 972 l 197 7 q 189 0 197 0 l 7 0 q 0 7 0 0 l 0 965 q 7 972 3 972 l 189 972 z "},"j":{"ha":1265,"x_min":0,"x_max":1192,"o":"m 1192 376 q 967 22 1192 146 q 851 0 892 0 l 338 0 q 26 229 138 0 q 0 331 6 286 l 199 331 q 351 200 224 200 l 838 200 q 988 311 947 200 q 992 340 992 326 l 992 913 l 1190 1043 l 1192 1042 l 1192 376 z "},"k":{"ha":1258,"x_min":0,"x_max":1192,"o":"m 201 514 l 1188 972 l 1192 965 l 1192 757 q 671 510 1144 729 l 671 506 q 1185 3 1046 146 l 1185 0 l 904 0 q 474 417 543 351 l 201 294 l 201 7 q 194 0 201 0 l 7 0 q 0 7 0 0 l 0 1158 l 200 1028 l 201 514 z "},"l":{"ha":1265,"x_min":0,"x_max":1199,"o":"m 200 340 q 204 311 200 326 q 354 200 244 200 l 1199 200 l 1199 0 l 340 0 q 225 22 300 0 q 0 376 0 146 l 0 1043 l 200 913 l 200 340 z "},"m":{"ha":1951,"x_min":0,"x_max":1883,"o":"m 942 860 q 1181 972 1054 972 l 1547 972 q 1867 722 1757 972 q 1883 610 1883 650 l 1883 7 q 1878 0 1883 0 l 1694 0 q 1686 7 1686 0 l 1686 607 q 1586 764 1686 722 q 1533 772 1553 772 l 1188 772 q 1156 768 1175 772 q 1040 625 1040 728 l 1040 7 q 1033 0 1040 0 l 850 0 q 843 7 843 0 l 843 625 q 728 768 843 728 q 696 772 710 772 l 351 772 q 201 642 231 772 l 201 7 q 194 0 201 0 l 7 0 q 0 7 0 0 l 0 972 l 201 972 l 201 938 q 338 972 269 972 l 703 972 q 942 860 829 972 z "},"n":{"ha":1267,"x_min":0,"x_max":1199,"o":"m 201 7 q 194 0 201 0 l 7 0 q 0 7 0 0 l 0 972 l 201 972 l 201 940 q 338 972 261 972 l 863 972 q 1013 929 939 972 q 1199 596 1199 806 l 1199 7 q 1192 0 1199 0 l 1006 0 q 999 7 999 0 l 999 642 q 847 772 969 772 l 351 772 q 324 768 328 772 q 201 632 201 735 l 201 7 z "},"o":{"ha":1267,"x_min":0,"x_max":1199,"o":"m 861 972 q 1169 743 1057 972 q 1199 596 1199 667 l 1199 376 q 1013 43 1199 165 q 875 0 940 0 l 322 0 q 50 183 169 0 q 0 374 0 279 l 0 596 q 186 929 0 806 q 338 972 260 972 l 861 972 m 201 331 q 319 201 201 247 l 858 201 q 997 322 960 201 l 997 632 q 875 768 997 738 q 847 772 871 772 l 351 772 q 201 642 231 772 l 201 331 z "},"p":{"ha":1261,"x_min":0,"x_max":1194,"o":"m 200 343 q 311 207 200 244 q 390 200 336 200 l 804 200 q 972 272 935 200 q 994 332 994 310 l 994 633 q 840 772 972 772 l 354 772 q 204 661 244 772 q 200 633 200 647 l 200 343 m 200 972 l 200 936 q 225 951 217 947 q 340 972 296 972 l 854 972 q 1165 744 1056 972 q 1194 597 1194 668 l 1194 376 q 1015 50 1194 175 q 822 0 944 0 l 372 0 q 200 36 275 0 l 200 -150 l 0 -282 l 0 972 l 200 972 z "},"q":{"ha":1261,"x_min":0,"x_max":1194,"o":"m 354 772 q 200 633 222 772 l 200 332 q 222 272 200 310 q 390 200 260 200 l 804 200 q 883 207 860 200 q 994 343 994 244 l 994 633 q 990 661 994 647 q 840 772 950 772 l 354 772 m 1193 -282 l 994 -150 l 994 36 q 822 0 919 0 l 372 0 q 179 50 250 0 q 0 376 0 175 l 0 597 q 29 744 0 668 q 340 972 139 972 l 854 972 q 969 951 899 972 q 994 936 978 947 l 994 972 l 1194 972 l 1194 -278 l 1193 -282 z "},"r":{"ha":1153,"x_min":0,"x_max":1085,"o":"m 351 772 q 201 642 231 772 l 201 7 q 194 0 201 0 l 7 0 q 0 7 0 0 l 0 972 l 201 972 l 201 938 q 338 972 269 972 l 1085 972 l 825 772 l 351 772 z "},"s":{"ha":1263,"x_min":0,"x_max":1194,"o":"m 297 772 q 183 711 207 772 q 175 682 183 706 q 261 589 193 589 l 883 589 q 1188 358 1118 589 q 1194 297 1194 335 l 1194 294 q 997 14 1194 99 q 922 0 957 0 l 8 0 l 274 201 l 915 201 q 1015 288 1015 214 l 1015 301 q 919 383 1015 371 l 290 383 q 7 607 86 383 q 0 661 0 635 l 0 689 q 215 965 0 879 q 276 972 256 972 l 1183 972 l 942 772 l 297 772 z "},"t":{"ha":1250,"x_min":0,"x_max":1183,"o":"m 1183 972 l 949 772 l 693 772 l 693 7 q 686 0 693 0 l 500 0 q 493 7 493 0 l 493 772 l 233 772 l 0 972 l 1183 972 z "},"u":{"ha":1265,"x_min":0,"x_max":1199,"o":"m 1199 376 q 1013 43 1199 165 q 875 0 940 0 l 322 0 q 50 183 169 0 q 0 374 0 279 l 0 965 l 1 969 l 201 840 l 201 331 q 319 201 201 247 l 858 201 q 997 322 960 201 l 997 839 l 1197 969 l 1199 968 l 1199 376 z "},"v":{"ha":1263,"x_min":0,"x_max":1194,"o":"m 592 0 q 413 154 465 0 l 0 968 l 7 972 l 211 972 q 478 456 222 968 q 592 240 583 244 q 596 236 596 240 q 689 403 615 236 q 979 972 706 425 l 1194 972 q 736 58 1129 831 q 607 0 678 0 l 592 0 z "},"w":{"ha":1653,"x_min":0,"x_max":1586,"o":"m 893 331 q 1013 201 893 247 l 1244 201 q 1385 322 1347 201 l 1385 839 l 1585 969 l 1586 968 l 1586 376 q 1399 43 1586 167 q 1263 0 1326 0 l 1015 0 q 793 115 893 0 q 707 43 756 75 q 571 0 635 0 l 322 0 q 50 183 169 0 q 0 374 0 279 l 0 965 l 1 969 l 201 840 l 201 331 q 319 201 201 247 l 553 201 q 693 322 656 201 l 693 965 l 694 969 l 893 840 l 893 331 z "},"x":{"ha":1258,"x_min":0,"x_max":1192,"o":"m 265 972 l 596 632 l 926 972 l 1192 972 l 1192 969 q 732 485 1156 928 q 1192 3 760 460 l 1192 0 l 926 0 q 596 342 924 0 l 269 0 l 0 0 l 0 3 l 460 489 q 0 969 382 564 l 0 972 l 265 972 z "},"y":{"ha":1265,"x_min":0,"x_max":1199,"o":"m 850 -83 q 883 -79 865 -83 q 994 33 981 -46 q 875 0 932 0 l 322 0 q 50 183 169 0 q 0 374 0 279 l 0 965 l 1 969 l 201 840 l 201 331 q 319 201 201 247 l 858 201 q 997 322 960 201 l 997 839 l 1197 969 l 1199 968 l 1199 108 q 1156 -83 1199 1 q 858 -283 1043 -283 l 304 -283 l 544 -83 l 850 -83 z "},"z":{"ha":1263,"x_min":0,"x_max":1194,"o":"m 919 972 q 981 965 940 972 q 1194 689 1194 881 l 1194 661 q 1188 607 1194 635 q 904 383 1108 383 l 276 383 q 179 301 179 371 l 179 288 q 281 201 179 214 l 921 201 l 1186 0 l 272 0 q 197 14 238 0 q 0 294 0 99 l 0 297 q 7 358 0 335 q 313 589 76 589 l 933 589 q 1019 682 1001 589 q 1013 711 1013 701 q 897 772 989 772 l 253 772 l 13 972 l 919 972 z "},"{":{"ha":688,"x_min":0,"x_max":0,"o":""},"|":{"ha":688,"x_min":0,"x_max":0,"o":""},"}":{"ha":688,"x_min":0,"x_max":0,"o":""},"~":{"ha":688,"x_min":0,"x_max":0,"o":""},"¡":{"ha":264,"x_min":0,"x_max":0,"o":""},"¢":{"ha":772,"x_min":0,"x_max":0,"o":""},"£":{"ha":688,"x_min":0,"x_max":0,"o":""},"¤":{"ha":688,"x_min":0,"x_max":0,"o":""},"¥":{"ha":856,"x_min":0,"x_max":0,"o":""},"¦":{"ha":688,"x_min":0,"x_max":0,"o":""},"§":{"ha":688,"x_min":0,"x_max":0,"o":""},"¨":{"ha":694,"x_min":0,"x_max":0,"o":""},"©":{"ha":1135,"x_min":0,"x_max":0,"o":""},"ª":{"ha":439,"x_min":0,"x_max":0,"o":""},"«":{"ha":639,"x_min":0,"x_max":0,"o":""},"¬":{"ha":688,"x_min":0,"x_max":0,"o":""},"®":{"ha":1135,"x_min":0,"x_max":0,"o":""},"¯":{"ha":454,"x_min":0,"x_max":0,"o":""},"°":{"ha":457,"x_min":0,"x_max":0,"o":""},"±":{"ha":688,"x_min":0,"x_max":0,"o":""},"²":{"ha":688,"x_min":0,"x_max":0,"o":""},"³":{"ha":688,"x_min":0,"x_max":0,"o":""},"´":{"ha":694,"x_min":0,"x_max":0,"o":""},"µ":{"ha":800,"x_min":0,"x_max":0,"o":""},"¶":{"ha":694,"x_min":0,"x_max":0,"o":""},"·":{"ha":344,"x_min":0,"x_max":0,"o":""},"∙":{"ha":344,"x_min":0,"x_max":0,"o":""},"¸":{"ha":694,"x_min":0,"x_max":0,"o":""},"¹":{"ha":688,"x_min":0,"x_max":0,"o":""},"º":{"ha":486,"x_min":0,"x_max":0,"o":""},"»":{"ha":639,"x_min":0,"x_max":0,"o":""},"¼":{"ha":1157,"x_min":0,"x_max":0,"o":""},"½":{"ha":1331,"x_min":0,"x_max":0,"o":""},"¾":{"ha":1157,"x_min":0,"x_max":0,"o":""},"¿":{"ha":1260,"x_min":0,"x_max":0,"o":""},"À":{"ha":1043,"x_min":0,"x_max":0,"o":""},"Á":{"ha":1043,"x_min":0,"x_max":0,"o":""},"Â":{"ha":1043,"x_min":0,"x_max":0,"o":""},"Ã":{"ha":1043,"x_min":0,"x_max":0,"o":""},"Ä":{"ha":1043,"x_min":0,"x_max":0,"o":""},"Å":{"ha":1043,"x_min":0,"x_max":0,"o":""},"Æ":{"ha":1436,"x_min":0,"x_max":0,"o":""},"Ç":{"ha":949,"x_min":0,"x_max":0,"o":""},"È":{"ha":781,"x_min":0,"x_max":0,"o":""},"É":{"ha":781,"x_min":0,"x_max":0,"o":""},"Ê":{"ha":781,"x_min":0,"x_max":0,"o":""},"Ë":{"ha":781,"x_min":0,"x_max":0,"o":""},"Ì":{"ha":444,"x_min":0,"x_max":0,"o":""},"Í":{"ha":444,"x_min":0,"x_max":0,"o":""},"Î":{"ha":444,"x_min":0,"x_max":0,"o":""},"Ï":{"ha":444,"x_min":0,"x_max":0,"o":""},"Ð":{"ha":1029,"x_min":0,"x_max":0,"o":""},"Ñ":{"ha":1053,"x_min":0,"x_max":0,"o":""},"Ò":{"ha":1094,"x_min":0,"x_max":0,"o":""},"Ó":{"ha":1094,"x_min":0,"x_max":0,"o":""},"Ô":{"ha":1094,"x_min":0,"x_max":0,"o":""},"Õ":{"ha":1094,"x_min":0,"x_max":0,"o":""},"Ö":{"ha":1094,"x_min":0,"x_max":0,"o":""},"×":{"ha":688,"x_min":0,"x_max":0,"o":""},"Ø":{"ha":1094,"x_min":0,"x_max":0,"o":""},"Ù":{"ha":1017,"x_min":0,"x_max":0,"o":""},"Ú":{"ha":1017,"x_min":0,"x_max":0,"o":""},"Û":{"ha":1017,"x_min":0,"x_max":0,"o":""},"Ü":{"ha":1017,"x_min":0,"x_max":0,"o":""},"Ý":{"ha":836,"x_min":0,"x_max":0,"o":""},"Þ":{"ha":758,"x_min":0,"x_max":0,"o":""},"ß":{"ha":847,"x_min":0,"x_max":0,"o":""},"à":{"ha":625,"x_min":0,"x_max":0,"o":""},"á":{"ha":1265,"x_min":0,"x_max":0,"o":""},"â":{"ha":625,"x_min":0,"x_max":0,"o":""},"ã":{"ha":625,"x_min":0,"x_max":0,"o":""},"ä":{"ha":625,"x_min":0,"x_max":0,"o":""},"å":{"ha":625,"x_min":0,"x_max":0,"o":""},"æ":{"ha":985,"x_min":0,"x_max":0,"o":""},"ç":{"ha":613,"x_min":0,"x_max":0,"o":""},"è":{"ha":615,"x_min":0,"x_max":0,"o":""},"é":{"ha":1263,"x_min":0,"x_max":0,"o":""},"ê":{"ha":615,"x_min":0,"x_max":0,"o":""},"ë":{"ha":615,"x_min":0,"x_max":0,"o":""},"ì":{"ha":347,"x_min":0,"x_max":0,"o":""},"í":{"ha":264,"x_min":0,"x_max":0,"o":""},"î":{"ha":347,"x_min":0,"x_max":0,"o":""},"ï":{"ha":347,"x_min":0,"x_max":0,"o":""},"ð":{"ha":772,"x_min":0,"x_max":0,"o":""},"ñ":{"ha":1267,"x_min":0,"x_max":0,"o":""},"ò":{"ha":685,"x_min":0,"x_max":0,"o":""},"ó":{"ha":1267,"x_min":0,"x_max":0,"o":""},"ô":{"ha":685,"x_min":0,"x_max":0,"o":""},"õ":{"ha":685,"x_min":0,"x_max":0,"o":""},"ö":{"ha":685,"x_min":0,"x_max":0,"o":""},"÷":{"ha":688,"x_min":0,"x_max":0,"o":""},"ø":{"ha":685,"x_min":0,"x_max":0,"o":""},"ù":{"ha":718,"x_min":0,"x_max":0,"o":""},"ú":{"ha":1265,"x_min":0,"x_max":0,"o":""},"û":{"ha":718,"x_min":0,"x_max":0,"o":""},"ü":{"ha":1265,"x_min":0,"x_max":0,"o":""},"ý":{"ha":588,"x_min":0,"x_max":0,"o":""},"þ":{"ha":685,"x_min":0,"x_max":0,"o":""},"ÿ":{"ha":588,"x_min":0,"x_max":0,"o":""},"ı":{"ha":347,"x_min":0,"x_max":0,"o":""},"ˆ":{"ha":694,"x_min":0,"x_max":0,"o":""},"ˇ":{"ha":694,"x_min":0,"x_max":0,"o":""},"ˉ":{"ha":694,"x_min":0,"x_max":0,"o":""},"˘":{"ha":694,"x_min":0,"x_max":0,"o":""},"˙":{"ha":694,"x_min":0,"x_max":0,"o":""},"˚":{"ha":694,"x_min":0,"x_max":0,"o":""},"˛":{"ha":694,"x_min":0,"x_max":0,"o":""},"˜":{"ha":694,"x_min":0,"x_max":0,"o":""},"˝":{"ha":694,"x_min":0,"x_max":0,"o":""},"–":{"ha":751,"x_min":0,"x_max":0,"o":""},"—":{"ha":1389,"x_min":0,"x_max":0,"o":""},"‘":{"ha":376,"x_min":0,"x_max":0,"o":""},"’":{"ha":376,"x_min":0,"x_max":0,"o":""},"‚":{"ha":376,"x_min":0,"x_max":0,"o":""},"“":{"ha":617,"x_min":0,"x_max":0,"o":""},"”":{"ha":617,"x_min":0,"x_max":0,"o":""},"„":{"ha":617,"x_min":0,"x_max":0,"o":""},"†":{"ha":688,"x_min":0,"x_max":0,"o":""},"‡":{"ha":688,"x_min":0,"x_max":0,"o":""},"•":{"ha":694,"x_min":0,"x_max":0,"o":""},"…":{"ha":1389,"x_min":0,"x_max":0,"o":""},"‹":{"ha":428,"x_min":0,"x_max":0,"o":""},"›":{"ha":428,"x_min":0,"x_max":0,"o":""},"⁄":{"ha":231,"x_min":0,"x_max":0,"o":""},"∕":{"ha":231,"x_min":0,"x_max":0,"o":""},"₣":{"ha":688,"x_min":0,"x_max":0,"o":""},"₤":{"ha":688,"x_min":0,"x_max":0,"o":""},"₧":{"ha":1375,"x_min":0,"x_max":0,"o":""},"€":{"ha":1250,"x_min":0,"x_max":0,"o":""},"№":{"ha":1539,"x_min":0,"x_max":0,"o":""},"™":{"ha":1014,"x_min":0,"x_max":0,"o":""},"∂":{"ha":688,"x_min":0,"x_max":0,"o":""},"∆":{"ha":732,"x_min":0,"x_max":0,"o":""},"∏":{"ha":1026,"x_min":0,"x_max":0,"o":""},"∑":{"ha":817,"x_min":0,"x_max":0,"o":""},"−":{"ha":688,"x_min":0,"x_max":0,"o":""},"√":{"ha":688,"x_min":0,"x_max":0,"o":""},"∞":{"ha":688,"x_min":0,"x_max":0,"o":""},"∫":{"ha":450,"x_min":0,"x_max":0,"o":""},"≈":{"ha":688,"x_min":0,"x_max":0,"o":""},"≤":{"ha":688,"x_min":0,"x_max":0,"o":""},"≥":{"ha":688,"x_min":0,"x_max":0,"o":""},"":{"ha":726,"x_min":0,"x_max":0,"o":""},"ﬁ":{"ha":726,"x_min":0,"x_max":0,"o":""},"":{"ha":732,"x_min":0,"x_max":0,"o":""},"ﬂ":{"ha":732,"x_min":0,"x_max":0,"o":""}}}
